ply
format ascii 1.0
comment PCL generated
obj_info is_cyberware_data 0
obj_info is_mesh 0
obj_info is_warped 0
obj_info is_interlaced 0
obj_info num_cols 75
obj_info num_rows 1
obj_info echo_rgb_offset_x 0
obj_info echo_rgb_offset_y 0
obj_info echo_rgb_offset_z 0
obj_info echo_rgb_frontfocus 0.0
obj_info echo_rgb_backfocus 0.0
obj_info echo_rgb_pixelsize 0.0
obj_info echo_rgb_centerpixel 0
obj_info echo_frames 1
obj_info echo_lgincr 0.0
element vertex 75
property float x
property float y
property float z
property uchar red
property uchar green
property uchar blue
property float nx
property float ny
property float nz
property float curvature
end_header
0.643916 -0.440014 0 255 0 0 0 0 0 0
0.62611 -0.413127 0 255 0 0 0 0 0 0
0.615204 -0.391774 0 255 0 0 0 0 0 0
0.655289 -0.40253 0 255 0 0 0 0 0 0
0.644654 -0.381752 0 255 0 0 0 0 0 0
0.644621 -0.36776 0 255 0 0 0 0 0 0
0.655524 -0.36003 0 255 0 0 0 0 0 0
0.668299 -0.353076 0 255 0 0 0 0 0 0
0.667554 -0.338965 0 255 0 0 0 0 0 0
0.696 -0.339339 0 255 0 0 0 0 0 0
0.700561 -0.327624 0 255 0 0 0 0 0 0
0.697831 -0.312671 0 255 0 0 0 0 0 0
0.709803 -0.304325 0 255 0 0 0 0 0 0
0.728966 -0.298655 0 255 0 0 0 0 0 0
0.741576 -0.289881 0 255 0 0 0 0 0 0
0.755447 -0.281281 0 255 0 0 0 0 0 0
0.759787 -0.268963 0 255 0 0 0 0 0 0
0.771262 -0.259043 0 255 0 0 0 0 0 0
0.764019 -0.242909 0 255 0 0 0 0 0 0
0.802146 -0.240793 0 255 0 0 0 0 0 0
0.802226 -0.226716 0 255 0 0 0 0 0 0
0.79911 -0.211917 0 255 0 0 0 0 0 0
0.814707 -0.201985 0 255 0 0 0 0 0 0
0.816877 -0.18853 0 255 0 0 0 0 0 0
0.832412 -0.177962 0 255 0 0 0 0 0 0
0.825852 -0.162615 0 255 0 0 0 0 0 0
0.836824 -0.150735 0 255 0 0 0 0 0 0
0.809964 -0.132387 0 255 0 0 0 0 0 0
0.822489 -0.120788 0 255 0 0 0 0 0 0
0.836739 -0.109063 0 255 0 0 0 0 0 0
0.831027 -0.0946536 0 255 0 0 0 0 0 0
0.822671 -0.080224 0 255 0 0 0 0 0 0
0.828523 -0.0672639 0 255 0 0 0 0 0 0
0.838926 -0.0544438 0 255 0 0 0 0 0 0
0.826709 -0.0402135 0 255 0 0 0 0 0 0
0.838658 -0.0271846 0 255 0 0 0 0 0 0
0.818924 -0.013269 0 255 0 0 0 0 0 0
0.83628 4.51731e-08 0 255 0 0 0 0 0 0
0.817073 0.013239 0 255 0 0 0 0 0 0
0.832345 0.0269801 0 255 0 0 0 0 0 0
0.840147 0.0408673 0 255 0 0 0 0 0 0
0.816639 0.0529976 0 255 0 0 0 0 0 0
0.832636 0.0675979 0 255 0 0 0 0 0 0
0.831201 0.081056 0 255 0 0 0 0 0 0
0.812452 0.092538 0 255 0 0 0 0 0 0
0.8372 0.109123 0 255 0 0 0 0 0 0
0.822179 0.120742 0 255 0 0 0 0 0 0
0.826643 0.135113 0 255 0 0 0 0 0 0
0.823069 0.148258 0 255 0 0 0 0 0 0
0.833951 0.16421 0 255 0 0 0 0 0 0
0.822144 0.175767 0 255 0 0 0 0 0 0
0.807295 0.186318 0 255 0 0 0 0 0 0
0.822043 0.203804 0 255 0 0 0 0 0 0
0.804785 0.213422 0 255 0 0 0 0 0 0
0.816907 0.230865 0 255 0 0 0 0 0 0
0.794528 0.238507 0 255 0 0 0 0 0 0
0.781076 0.248332 0 255 0 0 0 0 0 0
0.767098 0.257645 0 255 0 0 0 0 0 0
0.744994 0.263727 0 255 0 0 0 0 0 0
0.743534 0.276845 0 255 0 0 0 0 0 0
0.74013 0.289316 0 255 0 0 0 0 0 0
0.732762 0.30021 0 255 0 0 0 0 0 0
0.717647 0.307688 0 255 0 0 0 0 0 0
0.714763 0.320257 0 255 0 0 0 0 0 0
0.713943 0.333882 0 255 0 0 0 0 0 0
0.689729 0.336282 0 255 0 0 0 0 0 0
0.683331 0.346976 0 255 0 0 0 0 0 0
0.668632 0.353252 0 255 0 0 0 0 0 0
0.654729 0.359594 0 255 0 0 0 0 0 0
0.659379 0.376179 0 255 0 0 0 0 0 0
0.64029 0.379168 0 255 0 0 0 0 0 0
0.651913 0.400456 0 255 0 0 0 0 0 0
0.631967 0.40245 0 255 0 0 0 0 0 0
0.620404 0.409362 0 255 0 0 0 0 0 0
0.641005 0.438025 0 255 0 0 0 0 0 0
