ply
format ascii 1.0
comment PCL generated
obj_info is_cyberware_data 0
obj_info is_mesh 0
obj_info is_warped 0
obj_info is_interlaced 0
obj_info num_cols 85
obj_info num_rows 1
obj_info echo_rgb_offset_x 0
obj_info echo_rgb_offset_y 0
obj_info echo_rgb_offset_z 0
obj_info echo_rgb_frontfocus 0.0
obj_info echo_rgb_backfocus 0.0
obj_info echo_rgb_pixelsize 0.0
obj_info echo_rgb_centerpixel 0
obj_info echo_frames 1
obj_info echo_lgincr 0.0
element vertex 85
property float x
property float y
property float z
property uchar red
property uchar green
property uchar blue
property float nx
property float ny
property float nz
property float curvature
end_header
0.505714 -0.409341 0 255 0 0 0 0 0 0
0.513202 -0.401816 0 255 0 0 0 0 0 0
0.520717 -0.394262 0 255 0 0 0 0 0 0
0.528268 -0.386676 0 255 0 0 0 0 0 0
0.535857 -0.379052 0 255 0 0 0 0 0 0
0.543486 -0.371386 0 255 0 0 0 0 0 0
0.55116 -0.363673 0 255 0 0 0 0 0 0
0.558884 -0.355909 0 255 0 0 0 0 0 0
0.566666 -0.348091 0 255 0 0 0 0 0 0
0.574507 -0.340213 0 255 0 0 0 0 0 0
0.582412 -0.332269 0 255 0 0 0 0 0 0
0.590385 -0.324254 0 255 0 0 0 0 0 0
0.598435 -0.316166 0 255 0 0 0 0 0 0
0.606567 -0.307997 0 255 0 0 0 0 0 0
0.614783 -0.299741 0 255 0 0 0 0 0 0
0.623089 -0.291393 0 255 0 0 0 0 0 0
0.631492 -0.282947 0 255 0 0 0 0 0 0
0.640001 -0.274398 0 255 0 0 0 0 0 0
0.648621 -0.265738 0 255 0 0 0 0 0 0
0.657357 -0.25696 0 255 0 0 0 0 0 0
0.666215 -0.248057 0 255 0 0 0 0 0 0
0.675204 -0.239021 0 255 0 0 0 0 0 0
0.684336 -0.229847 0 255 0 0 0 0 0 0
0.693615 -0.220525 0 255 0 0 0 0 0 0
0.703048 -0.211046 0 255 0 0 0 0 0 0
0.712645 -0.2014 0 255 0 0 0 0 0 0
0.715802 -0.189825 0 255 0 0 0 0 0 0
0.715774 -0.177457 0 255 0 0 0 0 0 0
0.715744 -0.165189 0 255 0 0 0 0 0 0
0.715714 -0.153013 0 255 0 0 0 0 0 0
0.715682 -0.140922 0 255 0 0 0 0 0 0
0.715654 -0.128909 0 255 0 0 0 0 0 0
0.715626 -0.116968 0 255 0 0 0 0 0 0
0.715597 -0.10509 0 255 0 0 0 0 0 0
0.715567 -0.0932692 0 255 0 0 0 0 0 0
0.715537 -0.0814993 0 255 0 0 0 0 0 0
0.71551 -0.0697741 0 255 0 0 0 0 0 0
0.715482 -0.0580867 0 255 0 0 0 0 0 0
0.715454 -0.0464308 0 255 0 0 0 0 0 0
0.715424 -0.0348003 0 255 0 0 0 0 0 0
0.715395 -0.0231891 0 255 0 0 0 0 0 0
0.715368 -0.0115911 0 255 0 0 0 0 0 0
0.715341 3.86403e-08 0 255 0 0 0 0 0 0
0.715312 0.0115902 0 255 0 0 0 0 0 0
0.715282 0.0231855 0 255 0 0 0 0 0 0
0.715254 0.0347921 0 255 0 0 0 0 0 0
0.715227 0.0464162 0 255 0 0 0 0 0 0
0.715199 0.0580638 0 255 0 0 0 0 0 0
0.715169 0.069741 0 255 0 0 0 0 0 0
0.715139 0.0814541 0 255 0 0 0 0 0 0
0.715112 0.09321 0 255 0 0 0 0 0 0
0.715084 0.105015 0 255 0 0 0 0 0 0
0.715055 0.116874 0 255 0 0 0 0 0 0
0.715025 0.128796 0 255 0 0 0 0 0 0
0.714995 0.140787 0 255 0 0 0 0 0 0
0.714967 0.152853 0 255 0 0 0 0 0 0
0.714938 0.165003 0 255 0 0 0 0 0 0
0.714908 0.177242 0 255 0 0 0 0 0 0
0.714876 0.189579 0 255 0 0 0 0 0 0
0.71431 0.201871 0 255 0 0 0 0 0 0
0.704973 0.211623 0 255 0 0 0 0 0 0
0.695444 0.221107 0 255 0 0 0 0 0 0
0.686072 0.23043 0 255 0 0 0 0 0 0
0.67685 0.239604 0 255 0 0 0 0 0 0
0.667775 0.248638 0 255 0 0 0 0 0 0
0.658834 0.257537 0 255 0 0 0 0 0 0
0.650018 0.26631 0 255 0 0 0 0 0 0
0.64132 0.274963 0 255 0 0 0 0 0 0
0.632735 0.283504 0 255 0 0 0 0 0 0
0.62426 0.291941 0 255 0 0 0 0 0 0
0.615883 0.300278 0 255 0 0 0 0 0 0
0.607599 0.308521 0 255 0 0 0 0 0 0
0.599401 0.316676 0 255 0 0 0 0 0 0
0.591287 0.32475 0 255 0 0 0 0 0 0
0.583252 0.332748 0 255 0 0 0 0 0 0
0.575287 0.340675 0 255 0 0 0 0 0 0
0.567388 0.348534 0 255 0 0 0 0 0 0
0.559549 0.356332 0 255 0 0 0 0 0 0
0.55177 0.364075 0 255 0 0 0 0 0 0
0.544043 0.371766 0 255 0 0 0 0 0 0
0.536362 0.379409 0 255 0 0 0 0 0 0
0.528724 0.387009 0 255 0 0 0 0 0 0
0.521124 0.39457 0 255 0 0 0 0 0 0
0.513561 0.402098 0 255 0 0 0 0 0 0
0.506028 0.409595 0 255 0 0 0 0 0 0
