ply
format ascii 1.0
comment Created by Blender 2.81 (sub 16) - www.blender.org, source file: ''
element vertex 95
property float x
property float y
property float z
property float nx
property float ny
property float nz
element face 45
property list uchar uint vertex_indices
end_header
-438.753754 -210.510330 10.040009 -0.707107 -0.707107 -0.000000
-437.081512 -212.182571 0.040009 -0.707107 -0.707107 -0.000000
-415.469818 -233.794281 10.040009 -0.707107 -0.707107 -0.000000
-412.132080 -237.132019 0.040009 -0.707107 -0.707107 -0.000000
-412.132080 -237.132019 10.040009 -0.707107 -0.707107 -0.000000
-438.753754 -210.510330 10.040009 0.000000 0.000000 0.000000
-437.081512 -212.182571 0.040009 0.000000 0.000000 0.000000
-438.753754 -210.510330 10.040009 0.000000 0.000000 0.000000
-437.081512 -212.182571 0.040009 0.000000 0.000000 0.000000
-462.132050 -187.132034 10.040009 -0.707107 -0.707107 0.000000
-462.132050 -187.132034 0.040009 -0.707107 -0.707107 0.000000
-438.753754 -210.510330 10.040009 -0.707107 -0.707107 0.000000
-437.081512 -212.182571 0.040009 -0.707107 -0.707107 0.000000
-299.185730 -124.185722 10.040009 0.707107 -0.707107 -0.000000
-306.280457 -131.280441 0.040009 0.707107 -0.707107 -0.000000
-200.000000 -25.000000 10.040009 0.707107 -0.707107 -0.000000
-200.000000 -25.000000 0.040009 0.707107 -0.707107 0.000000
-299.185730 -124.185722 10.040009 0.707107 -0.707107 -0.000001
-397.971222 -222.971207 10.040009 0.707107 -0.707107 -0.000001
-306.280457 -131.280441 0.040009 0.707107 -0.707107 -0.000001
-306.280457 -131.280441 0.040009 0.707107 -0.707107 0.000001
-397.971222 -222.971207 10.040009 0.707107 -0.707107 0.000001
-412.132019 -237.132019 0.040009 0.707107 -0.707107 0.000001
-412.132019 -237.132019 0.040009 0.707107 -0.707106 0.000000
-397.971222 -222.971207 10.040009 0.707107 -0.707106 0.000000
-412.132019 -237.132019 10.040009 0.707107 -0.707106 0.000000
312.946320 -137.946304 10.040009 -0.707107 -0.707107 0.000001
305.851593 -130.851593 0.040009 -0.707107 -0.707107 0.000001
412.132019 -237.132019 10.040009 -0.707107 -0.707107 0.000001
305.851593 -130.851593 0.040009 -0.707107 -0.707107 -0.000000
412.132019 -237.132019 0.040009 -0.707107 -0.707107 -0.000000
412.132019 -237.132019 10.040009 -0.707107 -0.707107 -0.000000
312.946320 -137.946304 10.040009 -0.815586 0.000000 0.578636
312.946320 -137.946289 10.040009 -0.815586 0.000000 0.578636
305.851593 -130.851593 0.040009 -0.815586 0.000000 0.578636
305.851593 -130.851593 0.040009 -0.809610 0.000000 0.586968
312.946320 -137.946289 10.040009 -0.809610 0.000000 0.586968
305.851593 -130.851578 0.040009 -0.809610 0.000000 0.586968
305.851593 -130.851578 0.040009 0.000000 0.000000 0.000000
312.946320 -137.946289 10.040009 0.000000 0.000000 0.000000
312.946320 -137.946289 10.040009 0.000000 0.000000 0.000000
312.946320 -137.946289 10.040009 -0.707107 -0.707107 0.000001
214.160812 -39.160805 10.040009 -0.707107 -0.707107 0.000001
305.851593 -130.851578 0.040009 -0.707107 -0.707107 0.000001
305.851593 -130.851578 0.040009 -0.707107 -0.707107 0.000000
214.160812 -39.160805 10.040009 -0.707107 -0.707107 0.000000
200.000000 -25.000000 0.040009 -0.707107 -0.707107 0.000000
200.000000 -25.000000 10.040009 -0.707107 -0.707107 0.000000
438.753754 -210.510330 10.040009 0.707107 -0.707107 0.000000
437.081512 -212.182571 0.040009 0.707107 -0.707107 0.000000
462.132050 -187.132034 10.040009 0.707107 -0.707107 0.000000
462.132050 -187.132034 0.040009 0.707107 -0.707107 0.000000
415.469818 -233.794281 10.040009 0.707107 -0.707107 -0.000000
412.132080 -237.132019 0.040009 0.707107 -0.707107 -0.000000
412.132080 -237.132019 10.040009 0.707107 -0.707107 0.000000
-200.000000 -25.000000 10.040009 -0.000000 -1.000000 0.000000
-200.000000 -25.000000 0.040009 -0.000000 -1.000000 0.000000
-12.973604 -25.000000 10.040009 -0.000000 -1.000000 0.000000
0.404322 -25.000000 0.040009 -0.000000 -1.000000 -0.000000
173.298126 -25.000000 10.040009 -0.000000 -1.000000 0.000000
200.000000 -25.000000 0.040009 -0.000000 -1.000000 -0.000000
200.000000 -25.000000 10.040009 0.000000 -1.000000 0.000000
348.855103 -73.855103 10.040009 0.707107 0.707107 0.000001
355.926178 -80.926170 0.040009 0.707107 0.707107 0.000001
250.000000 25.000000 10.040009 0.707107 0.707107 0.000001
355.926178 -80.926170 0.040009 0.707107 0.707107 0.000000
250.000000 25.000000 0.040009 0.707107 0.707107 0.000000
250.000000 25.000000 10.040009 0.707107 0.707107 0.000000
447.971252 -172.971222 10.040009 0.707107 0.707107 0.000001
355.926178 -80.926170 0.040009 0.707107 0.707107 -0.000001
447.971252 -172.971222 10.040009 0.707107 0.707107 -0.000001
462.132050 -187.132034 0.040009 0.707107 0.707107 -0.000001
462.132050 -187.132034 0.040009 0.707107 0.707106 0.000000
447.971252 -172.971222 10.040009 0.707107 0.707106 0.000000
462.132050 -187.132034 10.040009 0.707107 0.707106 0.000000
-363.276947 -88.276932 10.040009 -0.707107 0.707107 -0.000001
-356.205872 -81.205864 0.040009 -0.707107 0.707107 -0.000001
-462.132050 -187.132034 10.040009 -0.707107 0.707107 -0.000001
-356.205872 -81.205864 0.040009 -0.707107 0.707107 0.000000
-462.132050 -187.132034 0.040009 -0.707107 0.707107 0.000000
-462.132050 -187.132034 10.040009 -0.707107 0.707107 0.000000
-264.160797 10.839194 10.040009 -0.707107 0.707107 -0.000001
-356.205872 -81.205864 0.040009 -0.707107 0.707107 0.000001
-264.160797 10.839194 10.040009 -0.707107 0.707107 0.000001
-250.000000 25.000000 0.040009 -0.707107 0.707107 0.000001
-250.000000 25.000000 0.040009 -0.707107 0.707107 0.000000
-264.160797 10.839194 10.040009 -0.707107 0.707107 0.000000
-250.000000 25.000000 10.040009 -0.707107 0.707107 0.000000
-250.000000 25.000000 10.040009 0.000000 1.000000 -0.000000
-16.381058 25.000000 10.040009 0.000000 1.000000 -0.000000
-250.000000 25.000000 0.040009 0.000000 1.000000 -0.000000
0.329615 25.000000 0.040009 0.000000 1.000000 0.000000
16.996283 25.000000 10.040009 0.000000 1.000000 0.000000
250.000000 25.000000 10.040009 -0.000000 1.000000 0.000000
250.000000 25.000000 0.040009 -0.000000 1.000000 0.000000
3 0 1 2
3 1 3 2
3 3 4 2
3 5 6 7
3 6 8 7
3 9 10 11
3 10 12 11
3 13 14 15
3 14 16 15
3 17 18 19
3 20 21 22
3 23 24 25
3 26 27 28
3 29 30 31
3 32 33 34
3 35 36 37
3 38 39 40
3 41 42 43
3 44 45 46
3 46 45 47
3 48 49 50
3 49 51 50
3 48 52 49
3 49 52 53
3 53 52 54
3 55 56 57
3 56 58 57
3 57 58 59
3 58 60 59
3 60 61 59
3 62 63 64
3 65 66 67
3 62 68 63
3 69 70 71
3 72 73 74
3 75 76 77
3 78 79 80
3 75 81 76
3 82 83 84
3 85 86 87
3 88 89 90
3 90 89 91
3 91 89 92
3 93 94 92
3 94 91 92
